<svg version="1.1" id="Layer_1" xmlns="http://www.w3.org/2000/svg" xmlns:xlink="http://www.w3.org/1999/xlink" x="0px" y="0px"
	 width="100%" viewBox="0 0 496 496" enable-background="new 0 0 496 496" xml:space="preserve">
<path fill="#000000" opacity="1.000000" stroke="none" 
	d="
M146.813522,255.792923 
	C151.640518,257.044830 155.733398,258.822571 158.703186,262.478333 
	C160.438416,264.614410 161.081604,266.439484 158.413635,268.811829 
	C151.143219,275.276672 149.210358,283.551544 151.598450,292.833618 
	C153.938995,301.930969 163.431580,307.528046 172.567688,305.331970 
	C177.650574,304.110199 181.141983,301.152679 182.658447,296.001038 
	C184.999619,288.047699 184.686050,279.889221 184.682587,271.747864 
	C184.676239,256.799744 184.681549,256.801483 199.590424,256.812592 
	C209.913940,256.820312 220.239899,256.953033 230.559723,256.760162 
	C234.468292,256.687134 235.905350,258.171417 235.927856,261.971832 
	C235.969299,268.968048 236.127136,276.005707 234.808044,282.865967 
	C232.235062,296.247284 224.401932,306.127625 212.002151,311.270172 
	C186.130142,321.999969 159.943542,322.610626 134.130264,310.792480 
	C125.029465,306.625824 118.238441,299.745850 115.049980,290.032410 
	C109.153122,272.068024 121.822449,251.513794 146.813522,255.792923 
z"/>
<path fill="#000000" opacity="1.000000" stroke="none" 
	d="
M388.280579,271.325989 
	C390.212524,295.165588 374.572693,306.864655 358.961182,312.385773 
	C335.751068,320.594208 312.245087,319.904419 288.680908,314.067047 
	C279.304108,311.744202 270.100555,308.865662 261.448700,304.431793 
	C258.783661,303.066071 257.198578,301.692474 258.563812,298.242554 
	C261.945496,289.697266 262.777435,280.841400 260.838104,271.784149 
	C260.709717,271.184540 260.956909,270.504486 261.097198,269.260986 
	C266.998627,270.213806 272.310333,272.391296 277.650848,274.400238 
	C279.694672,275.169067 279.486420,277.447021 280.067413,279.093292 
	C286.394531,297.021912 307.974915,309.559662 325.888489,305.636719 
	C337.885254,303.009552 341.898743,290.769867 333.833740,281.382477 
	C329.279633,276.081635 323.223450,272.829010 317.257446,269.531525 
	C311.575684,266.391174 305.682678,263.635162 299.929352,260.620850 
	C298.548645,259.897461 296.660736,259.728088 296.082397,257.719025 
	C297.411316,256.197784 299.184235,256.860504 300.714081,256.857330 
	C326.202209,256.804108 351.690491,256.807892 377.178711,256.808502 
	C384.490387,256.808685 384.772614,256.997101 386.762115,264.055908 
	C387.391724,266.289703 387.766754,268.595215 388.280579,271.325989 
z"/>
<path fill="#000000" opacity="1.000000" stroke="none" 
	d="
M337.487854,169.357239 
	C344.622437,170.570374 351.368713,171.517075 358.049896,172.802109 
	C366.143829,174.358887 373.580444,173.234131 380.559174,167.709763 
	C384.267303,173.234680 384.035004,178.823807 382.327271,184.457138 
	C381.212280,188.135193 379.033234,191.348770 376.879364,194.526871 
	C373.674469,199.255814 370.974854,204.249069 370.418671,210.029968 
	C370.164032,212.676468 368.947418,213.410431 366.564514,213.350281 
	C361.745758,213.228622 357.629913,210.931076 353.352478,209.172516 
	C351.473267,208.399933 351.846710,206.427383 351.618469,204.806442 
	C349.216675,187.748322 333.489838,175.994171 317.370880,179.187027 
	C307.882355,181.066528 303.667999,189.061905 307.528351,198.026566 
	C309.493195,202.589493 312.971863,205.940216 316.791534,208.971497 
	C318.057343,209.976044 319.724548,210.579468 320.275208,212.416428 
	C319.195312,213.946136 317.567078,213.342575 316.190338,213.345551 
	C298.036224,213.384628 279.881958,213.384201 261.727814,213.354767 
	C256.139587,213.345718 255.402069,212.620209 255.795334,206.937042 
	C256.866516,191.457733 264.925262,180.733276 278.940216,174.708389 
	C297.659180,166.661346 317.134888,165.124100 337.487854,169.357239 
z"/>
<path fill="#000000" opacity="1.000000" stroke="none" 
	d="
M192.073029,213.366928 
	C184.720016,213.276291 184.717194,213.276306 184.683960,206.522888 
	C184.673309,204.358002 184.531586,202.180130 184.715698,200.030975 
	C185.019867,196.480469 183.929077,193.819656 181.319504,191.187561 
	C175.116592,184.931076 173.760727,173.370743 177.814362,166.063522 
	C179.563248,162.910873 181.120422,161.648544 184.652679,164.576584 
	C191.214111,170.015640 199.437653,171.302216 207.635162,171.574829 
	C217.100342,171.889618 226.603287,172.280792 236.050888,170.837662 
	C237.962494,170.545654 240.012955,170.240997 241.977539,171.235062 
	C242.020950,171.728439 242.268005,172.319870 242.075287,172.667542 
	C236.040802,183.554459 234.820038,195.393631 235.416641,207.503967 
	C235.640808,212.054108 234.166763,213.570908 229.532532,213.463089 
	C217.215668,213.176559 204.887695,213.366547 192.073029,213.366928 
z"/>
<path fill="#000000" opacity="1.000000" stroke="none" 
	d="
M227.161438,239.350098 
	C226.837631,236.875946 226.650009,234.780594 226.462402,232.685242 
	C226.127655,232.677124 225.792908,232.669006 225.458160,232.660904 
	C225.458160,235.326538 225.539169,237.995178 225.440994,240.657196 
	C225.246445,245.932846 221.401688,249.299301 216.245911,248.757416 
	C214.911255,248.617142 213.075729,248.305466 212.950424,246.966248 
	C212.520248,242.368454 207.096603,239.623566 208.510422,234.346542 
	C208.809814,233.228989 207.981491,231.809280 207.676636,230.544907 
	C212.911148,226.997986 215.207550,228.682907 216.730545,237.212830 
	C219.370285,234.812424 216.348450,231.794861 217.871140,228.777115 
	C222.846619,229.689407 228.112976,227.486588 233.159622,229.832962 
	C234.453964,230.434723 235.351196,229.921799 236.442993,229.615265 
	C241.355957,228.235779 243.670441,229.772720 244.194092,234.787674 
	C244.417236,236.924713 244.497589,239.076675 244.644638,241.248596 
	C239.165268,244.541718 237.197571,242.773270 236.460373,233.818802 
	C234.300690,236.718491 234.300690,236.718491 235.249771,241.840149 
	C232.046860,243.182037 229.242035,243.348755 227.161438,239.350098 
z"/>
<path fill="#000000" opacity="1.000000" stroke="none" 
	d="
M323.233002,333.208099 
	C324.578491,332.960815 325.559296,332.725006 326.547272,332.689667 
	C328.560883,332.617615 331.252716,332.479553 331.716919,334.619995 
	C332.172272,336.719757 332.816559,339.506622 331.025909,341.442139 
	C329.240417,343.372131 326.826904,343.016205 324.482971,342.322845 
	C322.709534,341.798218 321.879089,340.364136 320.675171,338.557373 
	C319.270599,340.923370 317.835815,343.119415 314.632111,342.389893 
	C311.342010,341.640594 311.828583,338.242950 310.161438,336.229401 
	C308.571381,343.727417 303.934784,344.917542 297.639709,339.318085 
	C294.215424,343.021088 289.816101,342.716125 284.942230,341.968964 
	C284.194183,337.610535 285.266022,333.126587 283.790924,328.352600 
	C289.505432,328.816864 295.493713,326.415833 298.368164,333.913300 
	C302.968140,331.484772 307.774597,333.583649 312.473175,332.747803 
	C316.007446,332.119141 316.544739,335.365295 317.590546,338.249420 
	C319.285400,336.106934 316.875885,334.618439 318.181305,332.716034 
	C319.557648,331.348969 321.169281,333.753082 323.233002,333.208099 
z"/>
<path fill="#000000" opacity="1.000000" stroke="none" 
	d="
M353.097351,339.809875 
	C351.810333,340.884277 350.804382,341.941315 349.251617,342.355621 
	C346.495514,343.091095 343.953094,343.016815 341.948120,340.707275 
	C340.479279,339.015350 340.327728,337.064362 341.444458,335.149048 
	C342.944427,332.576385 345.492126,332.626801 348.048187,332.676483 
	C360.572662,332.919983 373.108276,333.662140 385.602203,332.136475 
	C387.212128,331.939911 388.606079,331.917053 389.612122,333.321289 
	C390.478638,334.530731 390.377075,335.827301 389.607300,337.059113 
	C388.714478,338.487915 388.101685,338.574158 384.802979,337.829224 
	C383.666138,339.104828 385.287262,340.678589 384.561249,341.869598 
	C381.604218,343.835968 379.834137,341.704712 377.870514,340.109741 
	C374.819946,343.128693 371.453888,343.693970 367.873901,341.459778 
	C364.686340,339.470490 362.873993,342.317474 360.973724,343.650482 
	C359.598511,344.615204 359.642303,347.694305 356.858887,346.850311 
	C353.883301,345.948059 353.710846,343.321686 353.636566,340.746674 
	C353.627533,340.432922 353.449432,340.124054 353.097351,339.809875 
z"/>
<path fill="#000000" opacity="1.000000" stroke="none" 
	d="
M352.195465,229.378021 
	C355.053772,229.233749 357.523163,228.987381 359.997101,228.800858 
	C360.264740,228.780670 360.558502,229.107269 361.300110,229.543640 
	C360.101898,233.352753 360.556885,237.494141 360.178650,241.574707 
	C359.741394,246.292084 355.144836,249.487488 350.496124,248.637222 
	C349.325867,248.423157 347.561798,247.945923 347.609131,247.025726 
	C347.819794,242.927872 344.331940,240.331833 343.745911,236.684723 
	C342.887909,231.344833 345.899780,228.681107 352.195465,229.378021 
z"/>
<path fill="#000000" opacity="1.000000" stroke="none" 
	d="
M363.584412,237.597656 
	C363.275665,232.452957 362.987732,227.685425 362.684967,222.672379 
	C365.128235,221.963516 367.294586,222.913254 369.418671,223.045471 
	C371.036133,225.083649 369.960693,227.441711 370.864929,229.833496 
	C373.944641,229.219101 377.664520,227.349350 379.668823,231.681854 
	C381.088470,234.750580 379.537506,238.328339 381.392365,241.263824 
	C375.332306,244.469254 373.476440,242.855713 372.465912,233.607605 
	C370.202393,236.111679 371.510773,238.734604 371.542542,241.186890 
	C366.747223,244.029617 365.023682,243.332077 363.584412,237.597656 
z"/>
<path fill="#000000" opacity="1.000000" stroke="none" 
	d="
M308.904785,240.987473 
	C304.817749,243.242783 300.880554,243.240616 296.962097,241.963806 
	C293.984924,240.993729 293.096283,239.114349 295.125671,236.411301 
	C298.423889,236.285873 299.241150,241.874710 303.388916,239.595734 
	C303.175385,236.748169 300.794800,236.272217 299.017151,235.328506 
	C295.689789,233.562073 292.860535,231.218704 293.973358,227.163712 
	C295.103027,223.047562 298.996033,222.701859 302.564270,222.804718 
	C305.007965,222.875168 307.435577,223.501328 309.835022,223.873581 
	C310.536011,226.320847 309.736267,227.898895 307.952789,229.001526 
	C305.276215,229.060242 304.982727,224.544144 301.489471,226.040695 
	C302.069366,229.398178 305.135284,229.645294 307.192230,230.949280 
	C311.521790,233.694016 312.155518,236.519211 308.904785,240.987473 
z"/>
<path fill="#000000" opacity="1.000000" stroke="none" 
	d="
M334.713440,240.953568 
	C333.018402,238.566864 334.111725,236.076996 333.327026,233.615067 
	C330.791901,236.094940 332.000916,238.872528 332.366119,241.405548 
	C327.459442,243.762299 324.693085,242.581299 323.989838,237.836914 
	C323.580383,235.074432 323.472351,232.267258 323.230133,229.496674 
	C325.215576,228.002914 327.292938,228.756653 329.033905,229.379349 
	C330.709686,229.978745 331.991394,230.087769 333.706390,229.504974 
	C337.889862,228.083359 340.460785,229.737000 341.120026,234.113068 
	C341.487579,236.552734 341.518280,239.043167 341.702576,241.535202 
	C339.299011,243.472641 337.090363,243.148895 334.713440,240.953568 
z"/>
<path fill="#000000" opacity="1.000000" stroke="none" 
	d="
M248.024323,337.363495 
	C249.675125,334.476593 248.128738,331.865784 247.245071,329.050812 
	C250.685471,328.162262 252.480942,328.824951 252.195694,332.402679 
	C251.996185,334.904999 251.518021,337.335510 250.431915,339.622803 
	C249.381638,341.834686 247.034164,343.685638 245.344589,342.421814 
	C241.654175,339.661285 234.343094,346.703918 233.265350,337.723358 
	C232.934387,334.965546 232.022476,332.277466 231.382782,329.583527 
	C236.111740,328.099945 236.111740,328.099945 239.560532,337.422241 
	C242.114197,334.704224 239.184067,332.112000 239.602753,329.176544 
	C242.941147,327.727295 245.168015,328.587158 246.103699,332.328094 
	C246.539612,334.070862 246.321793,336.012817 248.024323,337.363495 
z"/>
<path fill="#000000" opacity="1.000000" stroke="none" 
	d="
M191.534454,233.017548 
	C190.199402,230.181595 190.337921,228.537903 193.829453,228.808624 
	C195.309082,228.923370 196.811935,228.711594 198.296997,228.788345 
	C203.655075,229.065247 208.145355,236.409683 205.939438,241.277878 
	C205.753632,241.687927 205.236725,242.296768 204.946732,242.258560 
	C200.500351,241.672806 195.763382,244.223923 191.606262,241.549530 
	C187.762405,239.076675 189.078476,236.065140 191.534454,233.017548 
z"/>
<path fill="#000000" opacity="1.000000" stroke="none" 
	d="
M179.862289,237.077515 
	C179.879562,234.530853 179.948166,232.372070 179.860748,230.219604 
	C179.774109,228.085968 179.530243,225.958725 179.344574,223.697678 
	C182.133301,221.873627 184.712250,223.446960 187.324692,223.558563 
	C187.324692,228.136978 187.340302,232.254395 187.319931,236.371613 
	C187.302490,239.897827 185.437195,241.831207 182.051163,242.553818 
	C178.251968,243.364532 174.732819,243.038025 172.066086,239.934464 
	C170.894379,238.570816 170.919876,236.807510 172.152145,235.357239 
	C173.061661,234.286850 174.295227,233.807449 175.730682,234.222137 
	C177.753265,234.806458 177.310760,236.403046 177.274307,237.886612 
	C177.259644,238.483627 177.560959,239.088425 177.696426,239.605591 
	C179.794769,239.947784 179.619537,238.533676 179.862289,237.077515 
z"/>
<path fill="#000000" opacity="1.000000" stroke="none" 
	d="
M257.712158,236.751770 
	C257.411163,232.902466 258.991211,230.685638 262.156799,229.478363 
	C265.481720,228.210373 268.720551,228.399658 271.573517,230.512955 
	C274.457703,232.649414 273.541992,240.207169 270.345978,241.851196 
	C265.619873,244.282288 260.183075,242.260513 257.712158,236.751770 
z"/>
<path fill="#000000" opacity="1.000000" stroke="none" 
	d="
M282.309875,226.272614 
	C282.630157,231.645523 281.506592,236.640167 283.557007,241.310089 
	C278.112183,243.723038 275.372620,242.476807 275.041321,237.321030 
	C274.727966,232.444199 274.974030,227.531418 274.974030,222.241516 
	C277.535461,223.377853 281.538788,220.839127 282.309875,226.272614 
z"/>
<path fill="#000000" opacity="1.000000" stroke="none" 
	d="
M274.863281,333.006409 
	C277.660461,335.010925 277.795929,337.357056 276.416687,339.788666 
	C274.891663,342.477264 272.305634,342.839905 269.486877,342.487396 
	C266.672760,342.135437 265.395660,340.225464 265.190552,337.756409 
	C264.934235,334.671387 265.128937,331.548920 265.128937,328.443542 
	C267.892792,327.597656 270.016327,327.708557 270.967407,330.626678 
	C271.546967,332.404724 273.003540,332.616882 274.863281,333.006409 
z"/>
<path fill="#000000" opacity="1.000000" stroke="none" 
	d="
M251.314301,242.585632 
	C245.177124,239.486313 249.131332,233.727905 245.865921,228.873810 
	C250.074280,229.750656 253.838898,227.629379 254.996170,231.937439 
	C255.795746,234.913910 254.955902,238.217896 255.873672,241.162979 
	C254.655609,242.684372 253.228073,242.848022 251.314301,242.585632 
z"/>
<path fill="#000000" opacity="1.000000" stroke="none" 
	d="
M312.238342,230.361115 
	C318.467987,227.969391 320.185577,229.085739 320.335236,235.073242 
	C320.388367,237.198746 320.636230,239.319351 320.792877,241.442337 
	C316.318695,243.747284 313.536591,242.432602 312.869324,237.636032 
	C312.550812,235.346680 312.376434,233.037292 312.238342,230.361115 
z"/>
<path fill="#000000" opacity="1.000000" stroke="none" 
	d="
M260.476440,342.663208 
	C258.664246,342.517792 257.057648,342.584778 255.793594,341.959381 
	C253.293045,340.722260 252.123581,338.514862 253.246750,335.776093 
	C254.572479,332.543304 257.517487,332.368835 260.395630,332.782501 
	C262.911255,333.144043 264.299164,334.060455 263.786377,337.446381 
	C263.415070,339.898285 263.679382,341.865967 260.476440,342.663208 
z"/>
<path fill="#000000" opacity="1.000000" stroke="none" 
	d="
M333.630371,335.976624 
	C333.624634,333.232452 333.624634,330.928619 333.624634,328.402039 
	C337.213226,327.373779 339.493988,327.895813 339.353485,332.315247 
	C339.254150,335.438995 339.334259,338.568451 339.334259,341.822723 
	C334.993469,343.330627 333.968018,342.434143 333.630371,335.976624 
z"/>
<path fill="#000000" opacity="1.000000" stroke="none" 
	d="
M253.436890,227.557129 
	C250.566849,228.760086 248.908691,227.711304 248.032104,225.391388 
	C247.445572,223.839127 248.061234,222.481033 249.457779,221.563553 
	C251.012115,220.542450 252.638840,220.526550 253.990906,221.796921 
	C255.949829,223.637466 255.597672,225.551208 253.436890,227.557129 
z"/>
<path fill="#000000" opacity="1.000000" stroke="none" 
	d="
M320.295868,223.340118 
	C320.586456,226.265579 319.530121,227.948563 316.882751,228.103394 
	C314.991882,228.213959 313.869385,226.898056 313.276733,225.230148 
	C312.699280,223.605133 313.264618,222.206329 314.738678,221.436951 
	C316.950714,220.282379 318.885010,220.685806 320.295868,223.340118 
z"/>
</svg>